# AST/ASF file generated using VICON BodyLanguage
# -----------------------------------------------
:version 1.10
:name VICON
:units
  mass 1.0
  length 0.45
  angle deg
:documentation
   .ast/.asf automatically generated from VICON data using
   VICON BodyBuilder and BodyLanguage model FoxedUp or BRILLIANT.MOD
:root
   order TX TY TZ RX RY RZ
   axis XYZ
   position 0 0 0  
   orientation 0 0 0 
:bonedata
  begin
     id 1 
     name lhipjoint
     direction 0.700308 -0.549349 0.455834 
     length 2.59063 
     axis 0 0 0  XYZ
  end
  begin
     id 2 
     name lfemur
     direction 0.34202 -0.939693 0  
     length 6.31066  
     axis 0 0 20  XYZ
    dof rx ry rz
    limits (-160.0 20.0)
           (-70.0 70.0)
           (-60.0 70.0)
  end
  begin
     id 3 
     name ltibia
     direction 0.34202 -0.939693 0   
     length 7.36093   
     axis 0 0 20   XYZ
    dof rx
    limits (-10.0 170.0)
  end
  begin
     id 4 
     name lfoot
     direction 0.0905332 -0.248738 0.96433   
     length 2.0233   
     axis -90 7.62852e-016 20   XYZ
    dof rx rz
    limits (-45.0 90.0)
           (-70.0 20.0)
  end
  begin
     id 5 
     name ltoes
     direction 1.53573e-011 -4.21855e-011 1   
     length 1.01524   
     axis -90 7.62852e-016 20   XYZ
    dof rx
    limits (-90.0 20.0)
  end
  begin
     id 6 
     name rhipjoint
     direction -0.61416 -0.607328 0.503944   
     length 2.34332  
     axis 0 0 0  XYZ 
  end
  begin
     id 7 
     name rfemur
     direction -0.34202 -0.939693 0   
     length 6.58548   
     axis 0 0 -20   XYZ
    dof rx ry rz
    limits (-160.0 20.0)
           (-70.0 70.0)
           (-70.0 60.0)
  end
  begin
     id 8 
     name rtibia
     direction -0.34202 -0.939693 0   
     length 7.20707   
     axis 0 0 -20   XYZ
    dof rx
    limits (-10.0 170.0)
 end
 begin
     id 9 
     name rfoot
     direction -0.136772 -0.375778 0.916561   
     length 1.92184  
     axis -90 -7.62852e-016 -20   XYZ
    dof rx rz
    limits (-45.0 90.0)
           (-20.0 70.0)
  end
  begin
     id 10 
     name rtoes
     direction -1.53535e-011 -4.21828e-011 1   
     length 0.951089   
     axis -90 -7.62852e-016 -20   XYZ
    dof rx
    limits (-90.0 20.0)
  end
  begin
     id 11 
     name lowerback
     direction -0.0444974 0.988086 -0.147332   
     length 1.9609   
     axis 0 0 0   XYZ
    dof rx ry rz
    limits (-20.0 45.0)
           (-30.0 30.0)
           (-30.0 30.0)
  end
  begin
     id 12 
     name upperback
     direction 0.00613146 0.999513 0.0306081   
     length 1.94944   
     axis 0 0 0   XYZ
    dof rx ry rz
    limits (-20.0 45.0)
           (-30.0 30.0)
           (-30.0 30.0)
  end
  begin
     id 13 
     name thorax
     direction 0.0254621 0.994518 0.101418   
     length 2.0119   
     axis 0 0 0   XYZ
    dof rx ry rz
    limits (-20.0 45.0)
           (-30.0 30.0)
           (-30.0 30.0)
  end
  begin
     id 14 
     name lowerneck
     direction 0.0168698 0.977854 0.208608   
     length 1.6375   
     axis 0 0 0   XYZ
    dof rx ry rz
    limits (-20.0 45.0)
           (-30.0 30.0)
           (-30.0 30.0)
  end
  begin
     id 15 
     name upperneck
     direction -0.0283988 0.989338 -0.142843   
     length 1.6851   
     axis 0 0 0   XYZ
    dof rx ry rz
    limits (-20.0 45.0)
           (-30.0 30.0)
           (-30.0 30.0)
  end
  begin
     id 16
     name head
     direction -0.0129422 0.99741 -0.0707489  
     length 1.69029  
     axis 0 0 0   XYZ
    dof rx ry rz
    limits (-20.0 45.0)
           (-30.0 30.0)
           (-30.0 30.0)
  end
  begin
     id 17 
     name lclavicle
     direction 0.820295 0.564628 -0.0911715  
     length 3.16484  
     axis 0 0 0   XYZ
    dof ry rz
    limits (-20.0 10.0)
           (0.0 20.0)
  end
  begin
     id 18 
     name lhumerus
     direction 1 -4.48969e-011 1.00186e-027   
     length 5.17853   
     axis 180 -30 -90   XYZ
    dof rx ry rz
    limits (-60.0 90.0)
           (-90.0 90.0)
           (-90.0 90.0)
  end
  begin
     id 19
     name lradius
     direction 1 -4.48966e-011 -1.52922e-027   
     length 3.40399   
     axis 180 -30 -90   XYZ
    dof rx
    limits (-10.0 170.0)
  end
  begin
     id 20
     name lwrist
     direction 1 -4.48981e-011 -3.80893e-027   
     length 1.70199   
     axis 1.1049e-015 90 90   XYZ
    dof ry
    limits (-180.0 0.0)
 end
  begin
     id 21 
     name lhand
     direction 1 -4.48957e-011 -7.61786e-027   
     length 0.708964   
     axis 4.86085e-015 90 90   XYZ
    dof rx rz
    limits (-90.0 90.0)
           (-45.0 45.0)
  end
  begin
     id 22 
     name lfingers
     direction 1 -4.48929e-011 -1.52357e-026   
     length 0.571585   
     axis 9.7217e-015 90 90   XYZ
    dof rx
    limits (0.0 90.0)
  end
  begin
     id 23
     name lthumb
     direction 0.707107 -6.34905e-011 0.707107   
     length 0.820685   
     axis -90 45 2.85299e-015   XYZ
    dof rx rz
    limits (-45.0 45.0)
           (-45.0 45.0)
  end
  begin
     id 24 
     name rclavicle
     direction -0.858602 0.463947 -0.218075   
     length 3.35137  
     axis 0 0 0   XYZ 
    dof ry rz
    limits (-10.0 20.0)
           (-20.0 0.0)
  end
  begin
     id 25 
     name rhumerus
     direction -1 -4.48969e-011 -1.98511e-027  
     length 5.42351   
     axis 180 30 90   XYZ
    dof rx ry rz
    limits (-90.0 60.0)
           (-90.0 90.0)
           (-90.0 90.0)
  end
  begin
     id 26 
     name rradius
     direction -1 -4.48961e-011 -2.82624e-027   
     length 3.42066   
     axis 180 30 90   XYZ
    dof rx
    limits (-10.0 170.0)
  end
  begin
     id 27 
     name rwrist
     direction -1 -4.48966e-011 -3.80893e-027   
     length 1.71033   
     axis 1.1049e-015 -90 -90   XYZ
    dof ry
    limits (-180.0 0.0)
  end
  begin
     id 28
     name rhand
     direction -1 -4.48964e-011 -7.61786e-027   
     length 0.743608   
     axis 4.86085e-015 -90 -90   XYZ
    dof rx rz
    limits (-90.0 90.0)
           (-45.0 45.0)
  end
  begin
     id 29
     name rfingers
     direction -1 -4.48961e-011 -1.52357e-026   
     length 0.599516   
     axis 9.7217e-015 -90 -90   XYZ
    dof rx
    limits (0.0 90.0)
  end
  begin
     id 30
     name rthumb
     direction -0.707107 -6.34913e-011 0.707107   
     length 0.860789   
     axis -90 -45 -2.85299e-015   XYZ
    dof rx rz
    limits (-45.0 45.0)
           (-45.0 45.0)
  end
:hierarchy
  begin
    root lhipjoint rhipjoint lowerback
    lhipjoint lfemur
    lfemur ltibia
    ltibia lfoot
    lfoot ltoes
    rhipjoint rfemur
    rfemur rtibia
    rtibia rfoot
    rfoot rtoes
    lowerback upperback
    upperback thorax
    thorax lowerneck lclavicle rclavicle
    lowerneck upperneck
    upperneck head
    lclavicle lhumerus
    lhumerus lradius
    lradius lwrist
    lwrist lhand lthumb
    lhand lfingers
    rclavicle rhumerus
    rhumerus rradius
    rradius rwrist
    rwrist rhand rthumb
    rhand rfingers
  end

#!OML:ASF E:\mmandel\Project 1\Capture day 1\Session 2\Subject.ASF
:FULLY-SPECIFIED
:DEGREES
2895
root 9.67906 15.0505 -0.808982 813.877 85.494 793.714
lowerback 20.6905 0.723966 -2.84467
upperback 2.71957 0.437483 -0.622503
thorax -8.62847 0.368044 0.813539
lowerneck -16.7936 1.72961 4.32482
upperneck 6.27374 2.2984 -7.98819
head 4.74979 0.735788 -2.99984
rclavicle 7.7526e-015 2.74323e-014
rhumerus -1.23474 6.0269 -86.5613
rradius 63.4097
rwrist -22.093
rhand -12.9468 27.3609
rfingers 7.12502
rthumb 13.1444 -2.20485
lclavicle 7.7526e-015 2.74323e-014
lhumerus -7.70591 -27.4616 84.3038
lradius 63.4081
lwrist 34.3604
lhand -19.4246 -32.0004
lfingers 7.12502
lthumb 6.89525 -2.13271
rfemur -55.0795 -2.14094 16.585
rtibia 65.5642
rfoot -32.7688 -11.4234
rtoes -7.2847
lfemur -55.4409 16.3523 -20.4823
ltibia 59.3929
lfoot -16.012 -3.58083
ltoes -6.70244
2896
root 9.6825 15.0554 -0.792379 815.771 85.4731 795.573
lowerback 20.6127 0.697623 -2.67338
upperback 2.7053 0.452393 -0.502608
thorax -8.60257 0.370378 0.843019
lowerneck -16.9882 1.78837 4.37748
upperneck 6.48634 2.36354 -7.92661
head 4.85051 0.765142 -2.98425
rclavicle 6.75868e-015 -1.78906e-014
rhumerus -1.17794 6.16952 -86.3099
rradius 63.2534
rwrist -21.9799
rhand -13.0881 27.3642
rfingers 7.12502
rthumb 13.0083 -2.21023
lclavicle 6.75868e-015 -1.78906e-014
lhumerus -7.75021 -27.5781 84.5019
lradius 63.504
lwrist 34.7284
lhand -19.219 -31.9918
lfingers 7.12502
lthumb 7.0938 -2.13067
rfemur -55.0592 -2.22374 16.6122
rtibia 65.5501
rfoot -32.8143 -11.4284
rtoes -7.39688
lfemur -55.6164 16.3662 -20.4697
ltibia 59.5453
lfoot -15.7752 -3.96021
ltoes -5.06298
2897
root 9.68744 15.0562 -0.773395 818.176 85.4711 797.916
lowerback 20.4684 0.659862 -2.43852
upperback 2.68246 0.464259 -0.414335
thorax -8.5494 0.368187 0.803064
lowerneck -16.6482 1.8309 4.36874
upperneck 6.23152 2.39778 -7.76179
head 4.71598 0.802711 -2.92616
rclavicle -8.34896e-015 -7.15625e-015
rhumerus -1.13632 6.26592 -86.0817
rradius 63.1453
rwrist -21.9848
rhand -13.205 27.3985
rfingers 7.12502
rthumb 12.8956 -2.18311
lclavicle -8.34896e-015 -7.15625e-015
lhumerus -7.86036 -27.6777 84.6929
lradius 63.6792
lwrist 34.9966
lhand -18.9659 -31.8037
lfingers 7.12502
lthumb 7.33802 -1.95098
rfemur -55.0811 -2.24793 16.6584
rtibia 65.572
rfoot -32.8804 -11.5433
rtoes -7.19029
lfemur -55.8361 16.3574 -20.4382
ltibia 59.6813
lfoot -15.5789 -4.30534
ltoes -4.25195
2898
root 9.69248 15.0553 -0.753323 820.634 85.4197 800.401
lowerback 20.4126 0.621746 -2.30396
upperback 2.67666 0.451946 -0.335585
thorax -8.52501 0.358681 0.815793
lowerneck -16.6031 1.94065 4.5708
upperneck 6.14103 2.50721 -7.84829
head 4.69137 0.85832 -2.97616
rclavicle 6.36111e-015 2.06736e-014
rhumerus -1.04921 6.3558 -85.9218
rradius 63.0422
rwrist -22.0465
rhand -13.332 27.4707
rfingers 7.12502
rthumb 12.7732 -2.11861
lclavicle 6.36111e-015 2.06736e-014
lhumerus -7.90561 -27.7976 84.8412
lradius 63.809
lwrist 35.3577
lhand -18.9037 -31.442
lfingers 7.12502
lthumb 7.39809 -1.59138
rfemur -55.0226 -2.24099 16.635
rtibia 65.6339
rfoot -32.9851 -11.606
rtoes -6.62993
lfemur -55.9421 16.2807 -20.3906
ltibia 59.8232
lfoot -15.5712 -4.64975
ltoes -5.55945
2899
root 9.6981 15.0473 -0.738591 822.268 85.3113 802.068
lowerback 20.322 0.627812 -2.22784
upperback 2.7125 0.487711 -0.255195
thorax -8.43795 0.373837 0.850931
lowerneck -16.79 2.05529 4.97546
upperneck 6.14737 2.60727 -8.18949
head 4.74089 0.892585 -3.14103
rclavicle -2.26615e-014 -2.26615e-014
rhumerus -0.96992 6.37621 -85.6895
rradius 63.0236
rwrist -22.0402
rhand -13.5167 27.4606
rfingers 7.12502
rthumb 12.5951 -2.13968
lclavicle -2.26615e-014 -2.26615e-014
lhumerus -7.83427 -27.9345 85.0171
lradius 63.8899
lwrist 35.6835
lhand -18.8186 -30.994
lfingers 7.12502
lthumb 7.48025 -1.14629
rfemur -55.0103 -2.31088 16.5565
rtibia 65.7543
rfoot -33.0969 -11.5262
rtoes -6.13029
lfemur -55.9985 16.1462 -20.3623
ltibia 59.9644
lfoot -15.6511 -4.9633
ltoes -6.49691
2900
root 9.70366 15.0393 -0.729978 822.608 85.1824 802.384
lowerback 20.1926 0.661989 -2.12766
upperback 2.71067 0.560058 -0.208483
thorax -8.37197 0.404617 0.826074
lowerneck -16.5245 2.11124 5.15647
upperneck 5.87464 2.63915 -8.20892
head 4.61855 0.921017 -3.17273
rclavicle 1.31198e-014 9.93923e-015
rhumerus -0.812582 6.30859 -85.4713
rradius 62.8691
rwrist -21.8976
rhand -13.536 27.3473
rfingers 7.12502
rthumb 12.5765 -2.25419
lclavicle 1.31198e-014 9.93923e-015
lhumerus -7.87638 -27.9793 85.2703
lradius 63.9616
lwrist 35.8377
lhand -18.4626 -30.6134
lfingers 7.12502
lthumb 7.82388 -0.778194
rfemur -55.0776 -2.39734 16.4465
rtibia 65.8854
rfoot -33.1937 -11.3535
rtoes -5.75741
lfemur -56.054 16.0454 -20.3896
ltibia 60.0616
lfoot -15.7842 -5.24436
ltoes -5.50359
2901
root 9.70645 15.0398 -0.723476 823.022 85.057 802.825
lowerback 20.1872 0.644106 -2.04681
upperback 2.70291 0.559428 -0.144707
thorax -8.37756 0.402615 0.849415
lowerneck -16.3349 2.1505 5.12913
upperneck 5.68348 2.67423 -8.03327
head 4.52767 0.954881 -3.10901
rclavicle 7.15625e-015 1.94809e-014
rhumerus -0.724586 6.37885 -85.3177
rradius 62.7501
rwrist -21.76
rhand -13.4253 27.3906
rfingers 7.12502
rthumb 12.6832 -2.20426
lclavicle 7.15625e-015 1.94809e-014
lhumerus -8.03543 -27.767 85.5705
lradius 64.0854
lwrist 35.9123
lhand -18.2951 -30.5889
lfingers 7.12502
lthumb 7.98556 -0.759731
rfemur -55.0575 -2.48267 16.3336
rtibia 65.9736
rfoot -33.2892 -11.1901
rtoes -5.39752
lfemur -56.0062 15.9716 -20.4303
ltibia 60.0886
lfoot -16.0056 -5.48156
ltoes -5.27416
2902
root 9.71005 15.0426 -0.718525 824.445 84.9726 804.321
lowerback 20.1643 0.579365 -1.90607
upperback 2.75233 0.517718 -0.045311
thorax -8.30956 0.379952 0.888639
lowerneck -16.6641 2.16339 5.14568
upperneck 5.80085 2.6787 -7.9911
head 4.61601 0.952098 -3.09805
rclavicle 1.07344e-014 1.51076e-014
rhumerus -0.622597 6.52273 -85.1136
rradius 62.6659
rwrist -21.7043
rhand -13.3472 27.552
rfingers 7.12502
rthumb 12.7585 -2.03813
lclavicle 1.07344e-014 1.51076e-014
lhumerus -8.14586 -27.384 85.8983
lradius 64.2865
lwrist 36.1179
lhand -18.196 -30.6538
lfingers 7.12502
lthumb 8.08112 -0.828289
rfemur -54.9472 -2.68482 16.3001
rtibia 66.0222
rfoot -33.38 -11.0343
rtoes -5.30149
lfemur -55.8764 15.864 -20.4097
ltibia 60.0736
lfoot -16.2562 -5.81406
ltoes -5.88488
2903
root 9.71577 15.042 -0.715465 825.668 84.9469 805.589
lowerback 20.0423 0.558371 -1.67539
upperback 2.78904 0.549347 0.0211055
thorax -8.20323 0.388186 0.821677
lowerneck -16.8229 2.22162 5.29445
upperneck 5.87698 2.71912 -7.96493
head 4.66878 0.972707 -3.11048
rclavicle -9.93923e-015 -2.46493e-014
rhumerus -0.413674 6.49263 -84.9353
rradius 62.4363
rwrist -21.6372
rhand -13.3353 27.5916
rfingers 7.12502
rthumb 12.77 -1.99792
lclavicle -9.93923e-015 -2.46493e-014
lhumerus -8.23379 -27.1871 86.1917
lradius 64.4582
lwrist 36.3917
lhand -17.8212 -30.2681
lfingers 7.12502
lthumb 8.44288 -0.456854
rfemur -54.8554 -2.91418 16.3409
rtibia 66.0395
rfoot -33.3516 -10.8883
rtoes -5.49999
lfemur -55.7615 15.7296 -20.298
ltibia 60.0475
lfoot -16.419 -6.43033
ltoes -5.15952
2904
root 9.72205 15.0391 -0.712733 825.617 84.897 805.553
lowerback 19.985 0.618061 -1.52777
upperback 2.77441 0.663314 0.0788043
thorax -8.19069 0.438272 0.770152
lowerneck -16.6854 2.27787 5.26618
upperneck 5.75807 2.77068 -7.71079
head 4.60792 1.0172 -3.02056
rclavicle 3.18055e-015 -2.3059e-014
rhumerus -0.403641 6.36467 -84.7688
rradius 62.3182
rwrist -21.5405
rhand -13.4467 27.5342
rfingers 7.12502
rthumb 12.6625 -2.06199
lclavicle 3.18055e-015 -2.3059e-014
lhumerus -8.3476 -27.1175 86.5072
lradius 64.6558
lwrist 36.4929
lhand -17.5864 -29.5941
lfingers 7.12502
lthumb 8.66947 0.207871
rfemur -54.829 -2.98484 16.309
rtibia 66.0677
rfoot -33.2192 -10.896
rtoes -5.86795
lfemur -55.6622 15.6141 -20.1952
ltibia 60.0148
lfoot -16.4483 -7.15823
ltoes -3.3773
2905
root 9.72975 15.0383 -0.711484 824.885 84.8336 804.816
lowerback 20.1283 0.675194 -1.5619
upperback 2.61157 0.731854 0.209052
thorax -8.4507 0.473649 0.910761
lowerneck -16.6635 2.30842 5.07282
upperneck 5.83913 2.82124 -7.39012
head 4.62389 1.05619 -2.88356
rclavicle 2.06736e-014 5.40694e-014
rhumerus -0.752007 6.48637 -84.5626
rradius 62.427
rwrist -21.4912
rhand -13.5836 27.4355
rfingers 7.12502
rthumb 12.5306 -2.1688
lclavicle 2.06736e-014 5.40694e-014
lhumerus -8.74474 -26.7444 87.0362
lradius 64.877
lwrist 36.4974
lhand -17.588 -29.2671
lfingers 7.12502
lthumb 8.66795 0.534928
rfemur -54.837 -2.99368 16.2425
rtibia 66.1155
rfoot -33.2482 -10.8851
rtoes -5.83472
lfemur -55.5779 15.5088 -20.1108
ltibia 59.9773
lfoot -16.4469 -7.65022
ltoes -1.9916
